<svg width="102" height="31" viewBox="0 0 102 31" fill="none" xmlns="http://www.w3.org/2000/svg">
<path d="M0 0.226074H4.57155L6.23495 6.49807C6.66839 8.12441 7.00922 9.55812 7.21668 10.6917H7.25373C7.47971 9.55812 7.89463 7.80211 8.23546 6.53511L9.89886 0.226074H14.4148V13.4517H11.7697V5.85716C11.7697 5.34592 11.8068 3.43802 11.8438 2.24882H11.7882C11.3918 3.81589 10.9176 5.5719 10.7287 6.23504L8.76523 13.4517H5.63109L3.66761 6.16094C3.4972 5.52004 2.98596 3.57138 2.63031 2.24882H2.57104C2.58956 3.43802 2.64513 5.42371 2.64513 5.93125V13.4517H0V0.226074Z" fill="black"/>
<path d="M20.35 0.226074H23.2989L28.2668 13.4517H25.2253L24.2065 10.3546H19.3905L18.3902 13.4517H15.3672L20.35 0.226074ZM23.4285 7.99104L22.5802 5.40149C22.3542 4.70131 21.9948 3.75662 21.7874 2.81193H21.7688C21.5058 3.88998 21.2576 4.56794 20.9946 5.40149L20.1647 7.99104H23.4285Z" fill="black"/>
<path d="M29.2305 0.226074H34.3688C37.2214 0.226074 39.6776 0.829934 39.6776 4.21229C39.6776 5.85716 38.8292 6.95003 37.5808 7.49832C38.8478 7.97252 39.3553 8.93573 39.3553 10.3694C39.3553 11.692 39.5257 12.5404 40.1111 13.3924L40.0925 13.448H37.0325C36.6361 12.7478 36.5212 12.1625 36.5212 10.4991C36.5212 9.02465 35.7655 8.43931 34.2725 8.43931H32.0831V13.4443H29.2305V0.226074ZM34.1206 6.21651C35.6877 6.21651 36.8584 5.972 36.8584 4.32713C36.8584 2.64522 35.6877 2.45628 34.1391 2.45628H32.0831V6.21651H34.1206Z" fill="black"/>
<path d="M41.5469 0.226074H44.3995V13.4517H41.5469V0.226074Z" fill="black"/>
<path d="M45.9863 6.8388C45.9863 2.83407 48.387 0 52.6362 0C56.8299 0 59.2675 2.85259 59.2675 6.8388C59.2675 10.8806 56.8299 13.6776 52.6362 13.6776C48.4425 13.6776 45.9863 11.2399 45.9863 6.8388ZM49.7836 10.1841C50.4245 11.0918 51.5026 11.4326 52.6362 11.4326C53.8624 11.4326 54.8479 11.0362 55.4332 10.2434C56.0556 9.41354 56.3038 8.14655 56.3038 6.84251C56.3038 5.50142 56 4.17886 55.4332 3.42311C54.8294 2.61179 53.8661 2.25243 52.714 2.25243C51.5063 2.25243 50.5208 2.59326 49.8799 3.38606C49.2946 4.10477 48.9538 5.51995 48.9538 6.84251C48.9538 8.27621 49.2538 9.42836 49.7836 10.1841Z" fill="black"/>
<path d="M66.7698 2.6267H62.5576V0.226074H73.8346V2.6267H69.6224V13.4517H66.7698V2.6267Z" fill="black"/>
<path d="M73.8936 9.06901L76.8017 8.74671C76.8017 10.599 77.9724 11.4845 79.6728 11.4845C81.1473 11.4845 82.2809 10.9917 82.2809 9.66917C82.2809 8.38365 80.9398 8.32808 78.9356 7.89463C76.2905 7.32782 74.2492 6.40166 74.2492 3.87137C74.2492 1.17067 76.8573 0 79.4061 0C82.2772 0 84.4518 1.13363 84.7704 4.23072L81.8808 4.68269C81.8067 2.92668 80.9176 2.17093 79.3876 2.17093C78.028 2.17093 77.1388 2.7007 77.1388 3.738C77.1388 4.71974 78.1984 5.09761 80.0877 5.43844C82.9589 5.94969 85.1891 6.74248 85.1891 9.59507C85.1891 12.77 82.355 13.6739 79.5987 13.6739C76.5572 13.6776 73.9862 12.2624 73.8936 9.06901Z" fill="black"/>
<path d="M90.142 0.226074H93.0909L98.0588 13.4517H95.0173L93.9985 10.3546H89.1824L88.1822 13.4517H85.1592L90.142 0.226074ZM93.2205 7.99104L92.3722 5.40149C92.1462 4.70131 91.7868 3.75662 91.5794 2.81193H91.5608C91.2978 3.88998 91.0496 4.56794 90.7866 5.40149L89.9567 7.99104H93.2205Z" fill="black"/>
<path d="M99.0225 0.226074H101.875V13.4517H99.0225V0.226074Z" fill="black"/>
<path d="M48.2119 17.3896H51.0645V22.7355H56.1843V17.3896H59.0369V30.6153H56.1843V25.1361H51.0645V30.6153H48.2119V17.3896Z" fill="black"/>
<path d="M60.623 24.0024C60.623 19.9976 63.0237 17.1636 67.2729 17.1636C71.4666 17.1636 73.9043 20.0162 73.9043 24.0024C73.9043 28.0442 71.4666 30.8412 67.2729 30.8412C63.0792 30.8412 60.623 28.4035 60.623 24.0024ZM64.4203 27.3477C65.0612 28.2553 66.1393 28.5962 67.2729 28.5962C68.5029 28.5962 69.4846 28.1998 70.0699 27.407C70.6923 26.5771 70.9405 25.3101 70.9405 24.0061C70.9405 22.665 70.6367 21.3424 70.0699 20.5867C69.4661 19.7754 68.5029 19.416 67.3507 19.416C66.143 19.416 65.1576 19.7568 64.5166 20.5496C63.9313 21.2683 63.5905 22.6835 63.5905 24.0061C63.5905 25.4398 63.8943 26.5919 64.4203 27.3477Z" fill="black"/>
<path d="M78.7044 17.3896H81.6534L86.6213 30.6153H83.5798L82.561 27.5182H77.7449L76.7447 30.6153H73.7217L78.7044 17.3896ZM81.783 25.1546L80.9347 22.5651C80.7087 21.8649 80.3493 20.9202 80.1419 19.9755H80.1233C79.8603 21.0536 79.6121 21.7315 79.3491 22.5651L78.5192 25.1546H81.783Z" fill="black"/>
<path d="M87.585 17.3896H92.1565L93.8199 23.6616C94.2534 25.288 94.5942 26.7217 94.8016 27.8553H94.8387C95.0647 26.7217 95.4796 24.9657 95.8204 23.6987L97.4838 17.3896H102V30.6153H99.3547V23.0207C99.3547 22.5095 99.3917 20.6016 99.4288 19.4124H99.3732C98.9768 20.9795 98.5026 22.7392 98.3137 23.3986L96.3502 30.6153H93.216L91.2526 23.3245C91.0822 22.6836 90.5709 20.735 90.2153 19.4124H90.1597C90.1782 20.6016 90.2338 22.5873 90.2338 23.0948V30.6153H87.5887V17.3896H87.585Z" fill="black"/>
<path d="M6.22598 18.7208H8.48417V20.47H6.22598V18.7208ZM10.6447 15H12.6774V23.9495H10.6447V15ZM7.69512 15.2413H9.69404V23.8666H7.69512V15.2413ZM2.41975 24.564H12.6774V30H10.547V26.2453H2.41975V24.564ZM3.41922 15.9048C5.38808 15.9048 6.83843 17.4089 6.83843 19.5765C6.83843 21.7442 5.38808 23.2483 3.41922 23.2483C1.43532 23.2521 0 21.7479 0 19.5803C0 17.4127 1.43532 15.9048 3.41922 15.9048ZM3.41922 17.718C2.53247 17.718 1.92002 18.3966 1.92002 19.5803C1.92002 20.7602 2.53247 21.4577 3.41922 21.4577C4.29093 21.4577 4.91841 20.7602 4.91841 19.5803C4.91841 18.3966 4.29093 17.718 3.41922 17.718ZM20.0156 15.8557H21.8867V16.9414C21.8867 20.1948 19.5797 23.0749 15.7096 23.8364L14.7891 22.0571C18.1594 21.4727 20.0156 19.094 20.0156 16.9414V15.8557ZM20.4514 15.8557H22.3076V16.9414C22.3076 19.143 24.1449 21.4727 27.5341 22.0571L26.6135 23.8364C22.7434 23.0749 20.4514 20.2438 20.4514 16.9414V15.8557ZM14.4847 26.4074H28V28.1566H14.4847V26.4074Z" fill="#1400FF"/>
</svg>
